<?xml version="1.0"?><svg width="640" height="480" xmlns="http://www.w3.org/2000/svg" xmlns:xlink="http://www.w3.org/1999/xlink">
 <title>flor bonita</title>
 <defs>
  <linearGradient id="linearGradient650">
   <stop stop-color="#000" offset="0" id="stop651"/>
   <stop stop-color="#fff" offset="1" id="stop652"/>
  </linearGradient>
  <linearGradient y2="0.539063" y1="0.53125" xlink:href="#linearGradient650" x2="1.166669" x1="1.000005" spreadMethod="repeat" id="linearGradient653" gradientUnits="objectBoundingBox"/>
  <linearGradient y2="0.460938" y1="0.460938" xlink:href="#linearGradient650" x2="1.166668" x1="1.222227" spreadMethod="repeat" id="linearGradient654" gradientUnits="objectBoundingBox"/>
 </defs>
 <g>
  <title>Layer 1</title>
  <path fill="#ffaad4" fill-rule="evenodd" stroke="black" stroke-width="3.75" id="path683" d="m230.222,154.272003c0,0 3.955002,-55.3797 12.658005,-79.905006c8.701996,-24.525295 18.195984,-38.765896 56.17099,-54.588596c43.513,-2.373501 75.15802,-10.284881 98.101013,22.943001c16.613983,39.556896 15.822998,58.544598 5.537994,92.563602c-11.075989,26.106995 -15.032013,29.272003 -40.347992,49.841003c-28.481018,10.284988 -52.214996,16.613998 -52.214996,16.613998l-79.905014,-47.468002z"/>
  <path fill="#ffaad4" fill-rule="evenodd" stroke="black" stroke-width="3.75" id="path684" d="m315.917999,204.740005c0,0 -19.778992,91.772995 -19.778992,92.56398c0,0.791016 11.449005,32.822021 41.513,55.765015c32.436981,22.152985 38.393005,15.437988 89.024994,11.481995c30.855011,-18.196991 34.019012,-18.988007 53.006989,-45.886993c3.955017,-31.644989 11.076019,-53.796997 1.582001,-81.487c-21.360992,-19.779007 -15.404999,-35.106995 -69.993988,-44.600998c-54.588013,-9.494003 -95.354004,13.746994 -95.354004,12.164001z"/>
  <path fill="#ffaad4" fill-rule="evenodd" stroke="black" stroke-width="3.75" id="path685" d="m289.557007,295.095001l-89.39801,10.283997c0,0 -7.121002,46.678009 -11.867996,75.950012c-0.791,28.480988 -2.373993,59.334991 7.119995,75.949005c11.076004,13.449982 39.557007,25.316986 59.335999,27.689972c17.405014,-1.580994 40.348007,-3.955994 65.664993,-18.987c14.240021,-18.195984 21.361023,-24.524994 25.31601,-60.917999c-4.747009,-36.391998 -56.962006,-109.177002 -56.17099,-109.967987z"/>
  <path fill="#ffaad4" fill-rule="evenodd" stroke="black" stroke-width="3.75" id="path686" d="m229.431,153.481003c-0.791,0 -70.412003,68.828995 -70.412003,68.828995c0,0 -37.182999,-11.867004 -60.917496,-30.063995c-23.734398,-18.195999 -41.1395,-38.764999 -47.468601,-73.575005c-19.791199,-19.898994 0.7911,-41.139496 10.284801,-61.709099c20.569595,-17.405098 32.0186,-30.316498 54.962296,-32.689899c23.734001,-3.164499 31.183998,-12 48.588997,3.031601c40.404999,3.0317 60.272003,50.810299 63.436005,61.095097c3.165009,10.284805 1.526001,67.455307 1.526001,65.082306z"/>
  <path fill="#ffaad4" fill-rule="evenodd" stroke="black" stroke-width="3.75" id="path687" d="m199.367004,306.17099l-41.139008,-82.278992c0,0 -76.620399,-16.449005 -98.772293,-6.164001c-22.151905,10.285004 -54.601204,45.227997 -48.468304,63.380005c-7.1203,18.987 -7.82284,22.690002 1.6708,57.498993c11.867099,35.601013 7.449399,47.557007 43.0507,57.84201c30.392403,15.790985 73.918098,3.417999 98.443092,-12.404999c24.526001,-15.822998 45.215012,-77.082001 45.215012,-77.873016z"/>
  <path fill-rule="evenodd" stroke="#000000" fill="none" stroke-width="3.67682" id="path682" d="m321.202637,234.572708c0.022308,-45.238297 -36.998688,-81.922913 -82.674118,-81.922913c-45.675385,0 -82.696381,36.684616 -82.674072,81.922913c0.000168,45.222794 37.014771,81.88298 82.6745,81.882889c45.659714,-0.000122 82.674149,-36.660522 82.674057,-81.883301l-82.674454,0.000412l82.674088,0z"/>
  <path fill-rule="evenodd" fill="#ffffaa" stroke-width="3.67682" id="path688" d="m318.829224,234.572815c0.021667,-43.927078 -35.936523,-79.548401 -80.300705,-79.548401c-44.364136,0 -80.322327,35.621323 -80.300659,79.548401c0.000168,43.912018 35.952148,79.509613 80.301071,79.509521c44.348907,-0.000122 80.30072,-35.5979 80.300629,-79.509933l-80.30101,0.000412l80.300674,0z"/>
  <path fill="#ffffff" fill-rule="evenodd" stroke-width="1pt" fill-opacity="0.5" id="path568" d="m238.335999,131.362c0,-39.584503 13.195007,-83.293499 37.110992,-95.663799c16.494019,-12.370399 77.522003,-18.968 94.839996,-2.474102c14.019012,39.585205 -54.428986,114.632896 -131.950989,98.137901z"/>
  <path fill="#ffffff" fill-rule="evenodd" stroke-width="1pt" fill-opacity="0.5" id="path570" d="m327.403015,203.936005c20.616974,-9.897003 111.333984,1.647995 130.301971,16.492996c24.739014,20.617004 18.143005,45.358994 14.019012,74.223007c-12.371002,-54.430008 -172.359985,-0.825012 -144.320984,-90.716003z"/>
  <path fill="#ffffff" fill-rule="evenodd" stroke-width="1pt" fill-opacity="0.498039" id="path572" d="m202.048996,318.567993c-4.123001,14.02002 -19.791992,120.404999 -4.947998,132.774994c11.546997,18.143005 60.202988,31.338013 82.470016,27.215027c2.472992,-10.721008 15.668976,-152.568024 -77.522018,-159.990021z"/>
  <path fill="#ffaaff" fill-rule="evenodd" stroke-width="1pt" id="path573" d="m143.496002,212.182999c-20.617004,-9.072006 -76.6959,-42.059998 -86.592201,-84.944c-7.422302,-23.090996 2.474098,-66.799999 14.019798,-70.098797c18.967804,-8.247002 103.086395,21.441998 72.572403,155.042797z"/>
  <path fill="#ffffff" fill-rule="evenodd" stroke-width="1pt" fill-opacity="0.498039" id="path574" d="m18.143299,340.01001c-7.422299,-24.740997 -13.195119,-46.183014 23.091301,-92.366013c20.617298,-44.533005 97.313404,-20.617004 105.560398,-18.968002c25.565994,51.955994 -94.839397,20.618011 -128.651699,111.334015z"/>
  <ellipse id="svg_1" cy="289" cx="61" stroke-linecap="null" stroke-linejoin="null" stroke-dasharray="null" stroke-width="3.75" stroke="black" fill="#ffaad4"/>
  <ellipse id="svg_2" cy="289" cx="61" stroke-linecap="null" stroke-linejoin="null" stroke-dasharray="null" stroke-width="3.75" stroke="black" fill="#ffaad4"/>
 </g>
</svg>