<?xml version="1.0" encoding="UTF-8" standalone="no"?>
<!-- Created with Inkscape (http://www.inkscape.org/) -->

<svg
   xmlns:osb="http://www.openswatchbook.org/uri/2009/osb"
   xmlns:dc="http://purl.org/dc/elements/1.1/"
   xmlns:cc="http://creativecommons.org/ns#"
   xmlns:rdf="http://www.w3.org/1999/02/22-rdf-syntax-ns#"
   xmlns:svg="http://www.w3.org/2000/svg"
   xmlns="http://www.w3.org/2000/svg"
   xmlns:sodipodi="http://sodipodi.sourceforge.net/DTD/sodipodi-0.dtd"
   xmlns:inkscape="http://www.inkscape.org/namespaces/inkscape"
   id="svg3336"
   version="1.1"
   inkscape:version="0.91 r13725"
   width="508"
   height="527"
   viewBox="0 0 508 527"
   sodipodi:docname="Guatemala_Regiones.svg">
  <metadata
     id="metadata3342">
    <rdf:RDF>
      <cc:Work
         rdf:about="">
        <dc:format>image/svg+xml</dc:format>
        <dc:type
           rdf:resource="http://purl.org/dc/dcmitype/StillImage" />
        <dc:title />
      </cc:Work>
    </rdf:RDF>
  </metadata>
  <defs
     id="defs3340">
    <linearGradient
       id="linearGradient4733"
       osb:paint="solid">
      <stop
         style="stop-color:#000000;stop-opacity:1;"
         offset="0"
         id="stop4735" />
    </linearGradient>
  </defs>
  <sodipodi:namedview
     pagecolor="#ffffff"
     bordercolor="#666666"
     borderopacity="1"
     objecttolerance="10"
     gridtolerance="10"
     guidetolerance="10"
     inkscape:pageopacity="0"
     inkscape:pageshadow="2"
     inkscape:window-width="1366"
     inkscape:window-height="706"
     id="namedview3338"
     showgrid="false"
     inkscape:zoom="1.0189753"
     inkscape:cx="226.25213"
     inkscape:cy="389.91634"
     inkscape:window-x="-8"
     inkscape:window-y="-8"
     inkscape:window-maximized="1"
     inkscape:current-layer="layer1" />
  <g
     inkscape:groupmode="layer"
     id="layer1"
     inkscape:label="PETEN"
     style="display:inline">
    <path
       style="fill-rule:nonzero;fill-opacity:1"
       d="m 389.4733,1.3411632 0,247.0701468 -5.50915,-0.12267 0.24535,1.84008 -0.36802,1.59474 -2.82146,0 -0.85871,-1.71741 -2.2081,-2.45344 -4.53887,-0.49069 0.12267,1.34939 -3.92551,0.12267 -4.29353,0 -2.45344,-0.12267 -1.22673,2.08543 0,2.57612 -1.59474,0.61336 -1.10405,0.98138 -1.47206,1.34939 -2.2081,0.36802 -4.04819,0 -4.29353,-0.36802 -0.36801,0.85871 -1.47207,0.36801 -0.98138,-2.33077 -1.10405,-1.59474 0.36802,-1.84008 -0.73604,-1.47207 -2.57611,0.12267 -2.08543,0.49069 -0.12267,1.96276 -1.71742,-0.36802 c 0,0 0.98138,-0.8587 -0.49068,-1.22672 -1.47207,-0.36802 -2.57612,-0.73603 -2.57612,-0.73603 l -2.2081,-0.73604 -2.94414,0.49069 -1.10405,1.71741 -2.69879,0.36802 -1.10405,-1.71741 -3.55749,-2.82146 -2.45345,0 -1.10405,-1.22673 -2.57611,-0.24534 -1.10405,1.84008 -5.15224,0.36802 -0.49069,0.73603 -5.64292,-0.12267 -1.10405,-3.0668 -2.69879,-2.20811 -1.47207,-1.71741 -3.80284,-0.12267 -2.94413,-1.59474 -0.61336,-3.18948 -1.59474,-2.2081 -1.3494,2.2081 0.12267,1.59474 -1.71741,0.12267 -2.08543,-1.22672 -0.12267,-1.71741 -1.34939,-1.34939 -1.59474,1.96275 -0.36802,1.96276 -2.57612,0.24534 0,-1.10405 -15.82472,-5.76559 -4.78422,-2.2081 -8.46438,-0.49069 -2.33077,-0.49069 -2.57612,-0.61336 -2.94413,-0.12268 -0.61337,-0.73603 -5.88826,0.24534 -1.22673,-1.34939 -2.2081,0.24534 0,-1.84008 -1.84008,-0.12267 -0.12267,-2.2081 1.47206,-1.22672 0.24535,-1.22673 -2.08543,-1.22672 1.34939,-0.85871 1.71742,0.24535 -0.24535,-2.45345 -1.71741,-2.08542 -2.08543,-0.24535 -0.24534,-2.94413 2.2081,-2.57612 -1.59474,-1.3494 0.61336,-2.08542 3.43482,-0.73604 -1.47206,-2.08543 1.71741,-0.98137 -1.10405,-0.98138 -0.49069,-2.08543 5.02956,-4.04818 -2.33077,-2.08543 1.10405,-1.59474 1.71741,1.10405 1.34939,0 -0.12267,-1.47207 -1.10405,-0.61336 0.24535,-4.4162 -2.82147,-0.49069 -1.34939,-1.59474 -7.23766,0.12267 -0.49069,-1.71741 1.22672,-0.8587 -2.08543,-2.08543 -3.0668,-0.12267 -1.22673,1.84008 -4.04818,-5.15224 -1.47207,0.12268 -0.24534,1.47206 -3.43483,0 -0.49068,-0.98137 -1.3494,-0.12268 -0.85871,1.3494 -1.10405,-1.59474 0.12268,-1.71741 1.96275,-1.84009 -3.80284,-0.8587 -0.24534,-3.92551 -0.24535,-3.06681 -1.59474,-1.22672 0.85871,-1.84009 -1.34939,-2.33077 0.24534,-4.17086 -0.85871,-2.2081 -5.2749,-4.4162 0,-1.96275 -0.85871,-0.61337 -0.24534,-1.84008 -0.73604,-1.10405 -1.84008,-0.61336 -7.60568,-5.52025 -0.12267,-1.59474 -2.69879,-0.24535 -0.36802,1.59474 -2.33077,-0.36801 -2.2081,-1.84009 -0.61336,0 -2.08543,-2.45344 -3.43482,0.24534 -2.08543,-1.10405 -0.61336,-1.84008 -2.94414,-2.45345 0.98138,-1.47206 0.49069,-2.45345 -1.22672,-0.98138 -3.43483,0.49069 0.24535,4.78422 -3.80284,-4.17086 -2.45345,0.61336 -0.73603,0.85871 -1.22672,-1.47207 -1.71742,0 0.12268,-5.2749 -6.25629,-6.37896 -0.24534,-3.80284 -5.52025,-0.24535 -0.85871,-0.8587 -2.08543,-0.12267 -0.36801,-2.82146 -1.59474,-1.962761 -1.22673,-2.085428 -1.59474,-2.085429 -0.24534,-1.594739 -2.33077,-1.717411 -1.71741,-0.736034 -2.2081,-0.490689 0.24534,-6.378957 -1.59474,-1.594739 -6.6243,0 -0.49069,1.472067 -2.2081,-0.122673 -0.24535,-3.189478 -2.82146,-0.613362 -1.10405,-1.226722 -3.18948,-0.122672 -1.96275,-1.472067 -0.12267,-3.557496 57.28794,0.490689 -0.24535,-73.4806796 z"
       id="PETEN"
       inkscape:connector-curvature="0"
       inkscape:label="PETEN" />
  </g>
  <g
     inkscape:groupmode="layer"
     id="layer3"
     inkscape:label="NOC"
     style="display:inline">
    <path
       style="display:inline;fill-rule:nonzero;"
       d="m 67.224395,225.96229 -48.748268,84.52872 0.08674,1.2144 1.387878,0.0867 c 0,0 1.040909,0.26023 1.214393,0.6072 0.173485,0.34697 1.995075,1.56136 1.995075,1.56136 l 0.520454,1.21439 c 0,0 1.387878,2.60227 1.301136,2.94924 -0.08674,0.34697 0.08674,2.42879 0.08674,2.77576 0,0.34697 0.433712,3.64318 0.433712,3.64318 l 0.520455,2.34204 1.040908,1.90834 1.474621,1.56136 2.342044,1.56136 1.82159,-1.12765 3.729923,-3.46969 5.46477,-4.68409 4.770831,-1.30114 2.949241,-1.30113 4.857573,0.60719 0.867424,1.64811 2.428787,1.38788 4.684088,-0.0867 2.602272,-1.04091 1.82159,-0.69393 2.081817,-1.38788 1.648105,0.17348 0.780682,1.73485 1.908332,3.20947 0.954166,1.73485 1.561363,1.99507 1.474621,1.73485 1.82159,1.82159 2.168559,2.77575 2.862499,1.73485 3.938567,2.05297 2.085428,1.10405 c 0,0 0.245345,0.85871 0.368017,1.47207 0.122672,0.61336 0.736034,2.82146 0.736034,2.82146 l 1.594739,1.84009 1.226722,-1.10405 2.576118,-1.10405 3.434829,-3.31215 0.36802,-1.71742 1.34939,-1.22672 0.24534,-2.08543 1.96276,-1.10405 10.67249,-0.73603 2.94413,-0.61336 1.59474,-0.61336 1.96276,-0.61336 3.0668,-0.24535 1.3494,-0.8587 0.98138,-0.98138 0.36801,-1.10405 7.48301,0.24534 0.98138,-7.11499 -0.12267,-3.92551 0.24534,-1.3494 4.17086,0.98138 9.44576,5.52025 5.64292,1.84009 6.50163,2.45344 7.72836,3.5575 6.6243,2.57612 6.13361,2.33077 3.31215,0.61336 3.18948,0.85871 2.82146,0 1.22672,1.10405 1.96276,0.8587 5.52025,0 13.73929,0 0.36802,-1.47207 2.82146,-0.12267 1.71741,-2.08543 2.33078,-2.08542 1.10405,-2.45345 c 0,0 0.98137,-1.47207 1.22672,-1.96276 0.24534,-0.49068 0.24534,-3.68016 0.24534,-3.68016 l -0.73603,-2.82147 -2.33077,-1.34939 -2.69879,-1.59474 -3.80284,0.12267 -4.04819,0.36802 -2.08542,1.10405 -5.27491,0.24534 -2.33077,-1.96275 -2.69879,-0.61336 -1.84009,-2.94414 -1.22672,-1.96275 0.24534,-3.92552 0.36802,-1.22672 2.33077,-0.8587 3.92552,-0.24535 3.80284,-4.66154 1.47206,-3.18948 0.12267,-5.02956 -0.12267,-4.53888 -1.59474,-4.4162 -1.34939,-3.31215 -3.43482,-2.82146 -12.02189,0.12267 -1.96275,-0.98138 -3.18948,0 -3.06681,-1.10405 -2.45344,-0.98138 -2.33077,-1.10405 -7.72836,-1.59474 -3.31215,-1.34939 -3.55749,-1.22672 -5.02956,-1.71741 -4.41621,-1.84009 -3.43482,-1.71741 -3.31215,-0.85871 -2.69879,-1.59473 7.72835,-16.56076 10.1818,-20.60894 z"
       id="NOC"
       inkscape:connector-curvature="0"
       inkscape:label="NOC" />
  </g>
  <g
     inkscape:groupmode="layer"
     id="layer4"
     inkscape:label="COR"
     style="display:inline">
    <path
       style="fill-rule:nonzero;"
       d="m 159.47393,227.37302 67.59241,0.0613 0.42935,-1.10405 1.59474,-0.18401 1.77875,-0.0613 0.79737,0.49069 0.36802,0.49069 5.45891,0 1.53341,0.6747 2.33077,0.30668 2.76012,0.42935 4.04819,0.61336 6.74697,0.49069 20.79295,7.85103 0.42935,0.79737 1.77875,0.0613 0.55203,-0.6747 0.184,-1.22672 1.47207,-1.59474 1.41073,0.85871 0.18401,1.65607 0.98138,0.6747 1.47207,0.85871 1.28805,-0.12268 -0.30668,-1.47206 1.28806,-2.45345 1.16539,1.10405 0.6747,1.22672 0.55202,2.57612 3.06681,2.39211 3.43482,-0.24534 4.53887,4.04818 1.10405,3.00547 5.45892,0.12267 0.85871,-0.8587 5.02956,-0.42936 1.04271,-1.77874 2.69879,0.36801 0.61336,1.10405 2.8828,0.24535 3.43482,2.76012 1.16539,1.59474 2.63745,-0.24534 1.10405,-1.84008 2.82147,-0.24535 5.45891,1.3494 0.30668,0.79737 -0.12267,0.49068 1.28806,0.49069 0.49069,-0.92004 0.0613,-1.28806 4.29353,-0.55202 0.6747,0.79737 0.18401,1.10405 -0.12267,0.8587 0.184,1.3494 1.59474,2.76012 1.53341,0 0.49069,-0.98137 1.34939,0.12267 2.82146,0.30668 2.26944,0 3.12814,-0.36802 1.04272,-0.0613 -0.18401,1.10405 -0.82804,0.30668 -0.092,0.61336 0,0.58269 -0.46003,0.33735 -0.27601,0.42935 -0.95071,0.24535 -0.55202,0.15334 0.184,0.46002 c 0,0 -0.0307,0.21467 -0.42935,0.24534 -0.39868,0.0307 -1.38006,-0.0307 -1.38006,-0.0307 l -0.15334,0.92005 -1.50274,0.12267 -0.61336,0.6747 -0.15334,0.55202 -0.79737,-0.18401 -0.0613,1.74808 -0.98138,0.73604 -0.61336,1.47206 -5.18291,4.3242 -7.27755,7.45452 -3.29621,4.85757 -1.38788,3.12273 -2.42879,3.29621 -1.21439,2.60227 -1.38788,1.56136 0.17349,2.60227 2.94924,0.86743 3.64318,3.12272 1.56136,3.4697 0.34697,2.08182 -2.42879,4.33711 -4.85757,9.71515 0.17349,2.94924 0.34697,2.77576 0.34696,3.12272 0.86743,0.86743 0,3.12272 1.21439,1.90834 -0.69394,0.69394 2.2553,3.81666 0,4.5106 -1.90833,1.56137 -6.24545,0.17348 -2.94924,0.69394 -3.12273,0 -2.2553,-0.52045 -16.30757,-0.34697 -6.04476,0.25709 -4.17086,2.20811 -4.4162,0.73603 -9.07775,2.2081 -12.02188,7.60568 -7.11499,5.15223 -6.13361,9.07775 -3.92551,7.36034 -0.49069,2.69879 -4.17086,0 -1.96276,-0.73604 -5.39758,-1.47207 -3.43482,-1.96275 -0.73603,-1.71741 -1.22672,4.66154 -1.96276,0.49069 -3.92551,-0.24534 -1.96276,-2.69879 -3.43482,1.22672 -5.64293,1.47207 -4.17085,1.47206 -2.69879,-1.71741 -4.66155,-0.49069 -0.98138,-3.18947 -2.2081,-3.18948 -2.45344,-4.17086 -2.45345,-4.4162 -2.2081,-2.2081 -3.43482,-2.45345 -8.34171,-8.58705 -2.2081,-4.90689 -2.45345,-4.41621 0.24535,-5.64292 2.45344,-4.17086 3.86418,2.14677 2.63745,1.10405 4.4162,0.73603 3.92551,0.61336 2.14677,1.22673 1.65607,0.73603 18.83019,-0.18401 0.79737,-1.47207 2.76013,-0.12267 1.71741,-2.33077 2.08543,-1.5334 1.41073,-3.18948 1.04272,-1.77875 0.36801,-3.7415 -0.73603,-2.0241 -1.96276,-1.90142 -2.45344,-0.98137 -1.90142,-0.55203 -3.68017,0.18401 -3.25081,0.24534 -2.45345,1.22673 c 0,0 -2.69879,0 -3.06681,0.0613 -0.36801,0.0613 -2.76012,-0.61336 -2.76012,-0.61336 l -1.84009,-1.59474 -1.77874,-0.30668 -3.18948,-4.72288 0.24534,-5.21357 3.61883,-1.10405 2.45345,-0.12267 1.16539,-0.85871 2.63745,-3.61883 1.65607,-2.69879 0.18401,-3.80284 0,-6.50163 -0.61336,-1.84008 -1.47207,-3.25082 -0.98137,-2.57612 -1.59474,-1.71741 -2.0241,-1.04271 -11.96054,0 -2.26944,-0.92004 -2.69879,0.184 -6.93098,-2.82146 -9.01641,-2.2081 -3.18948,-1.41073 -11.22451,-3.86417 -3.00547,-1.84009 -2.51478,-0.98138 -3.06681,-0.61336 -2.33077,-1.47206 z"
       id="COR"
       inkscape:connector-curvature="0"
       inkscape:label="COR" />
  </g>
  <g
     inkscape:groupmode="layer"
     id="layer5"
     inkscape:label="NORI"
     style="display:inline">
    <path
       style="fill-rule:nonzero"
       d="m 298.56728,345.53494 6.76591,8.15378 1.38787,3.12273 2.94924,4.33712 0.69394,1.21439 -8.50075,-0.17349 -0.52045,2.08182 1.38787,1.38788 1.38788,1.90833 1.56137,1.73485 1.0409,1.73485 2.42879,2.42878 1.38788,1.38788 2.77575,-0.17348 1.56137,1.04091 -0.34697,2.2553 -3.12273,0.69394 -2.2553,1.0409 -4.33712,2.25531 -1.04091,1.90833 0.52046,4.16363 0.17348,1.56137 3.12273,2.2553 3.46969,2.08182 4.16364,0.86742 5.37802,0.34697 2.25531,-0.17349 2.77575,4.16364 1.73485,4.85757 -1.38788,6.24545 -3.99015,8.15379 -0.34697,2.94924 7.45985,-0.17349 6.24545,6.93939 10.92954,-0.69393 0.69394,5.20454 -2.2553,3.64318 2.60227,3.64318 2.2553,0.69394 1.56136,0.86742 2.60227,0 2.94925,-0.86742 2.77575,-3.64318 -1.38788,4.68409 1.2144,1.0409 2.42878,-1.56136 2.77576,0.34697 -0.34697,-2.94924 1.90833,-1.56136 -0.52045,-1.90834 4.85757,-3.64318 1.04091,-4.16363 2.77576,0.34697 5.37802,-6.59242 1.2144,0.69394 1.90833,-2.94924 2.42879,1.73484 1.73484,-0.17348 1.38788,0.86742 2.08182,0.52046 0,-2.77576 1.21439,-3.29621 -1.04091,-1.04091 1.04091,-2.94924 0.34697,-3.64318 1.04091,-4.5106 -2.77575,-3.4697 -2.08182,-1.56136 -0.69394,-2.60227 -2.08182,-3.99015 -2.42878,-2.2553 0,-1.73485 -1.73485,-0.86742 0.17348,-2.08182 -1.04091,-1.38788 1.04091,-1.90833 1.73485,0.86742 5.37803,-10.2356 1.56136,-2.77576 -0.52045,-3.29621 -2.08182,0 -1.21439,-1.90833 0,-2.60227 1.38787,-0.52045 0,-2.77576 3.81667,-2.77576 1.73485,0.17349 1.0409,-1.90833 2.94925,-0.52046 0.86742,-1.38788 5.20454,0.69394 0.69394,-1.38788 3.12273,-0.69394 3.46969,-1.21439 2.08182,-0.34697 6.07197,-6.93939 2.94924,-1.21439 3.99015,-3.64318 4.33712,-4.68409 4.5106,-1.38788 7.45985,-5.55151 3.29621,-0.86743 2.77575,-3.46969 1.73485,0.17348 6.24545,-6.59242 1.04091,0.34697 6.07197,-5.55151 2.2553,-1.04091 -0.52046,-1.90833 3.12273,-1.56136 2.77576,-3.12273 1.0409,0.52045 3.81667,-3.29621 2.2553,-3.29621 1.56136,0.52046 0,-2.77576 1.90834,-2.08182 1.38787,1.04091 1.38788,-2.42878 2.08182,-0.52046 0.69394,-1.56136 2.42879,0.34697 3.29621,-5.20454 1.21439,-3.12273 1.21439,-2.08182 3.99015,1.04091 -0.34697,-2.42879 2.25531,-1.0409 1.90833,1.90833 1.90833,-1.21439 -1.38788,-1.73485 2.08182,-2.94924 -8.32727,-8.32727 -3.81666,-1.2144 -14.91969,-7.63333 -2.25531,-1.0409 -2.2553,-3.4697 -1.21439,-0.17348 -10.92954,-10.58257 -3.64318,0.52045 0.69394,6.59242 9.36817,5.03106 4.16364,3.46969 -1.04091,3.64318 -5.03106,0 -2.42878,-2.42878 0.69393,12.66439 -2.42878,3.29621 -3.12273,2.60227 -3.46969,-1.73485 -2.08182,-2.60227 -3.81667,-3.4697 -0.34696,-2.42878 -6.9394,-6.24545 -2.94924,2.77575 -1.0409,2.42879 -1.90834,1.90833 0,1.38788 -3.29621,1.21439 0,2.60227 -1.73485,0.34697 -1.21439,-1.73484 -3.12272,0.86742 -1.73485,2.42879 -3.29621,0.69393 -2.2553,1.90834 0.69393,3.81666 -1.38787,0.86743 0,1.73484 -1.38788,2.42879 0.69394,1.73485 1.90833,1.38788 0.69394,5.72499 -2.77576,2.42879 -0.34697,1.56136 -3.81666,0.17349 -5.03106,4.5106 0,1.73485 -2.2553,0.17348 -0.69394,0.86743 -3.99015,0.86742 -2.2553,1.73485 -2.77576,-0.17349 -2.42879,-1.56136 -6.93939,0.69394 -1.56136,2.2553 -1.90833,1.56137 -2.08182,0.17348 -0.86742,1.04091 -0.34697,1.04091 -1.73485,-1.38788 -2.42879,-1.56136 0.86743,-1.56137 -0.52046,-7.11287 -1.04091,-0.69394 -1.56136,-0.86742 -2.60227,-1.04091 -0.69394,1.90833 -2.08182,-2.42879 2.60228,-3.99015 3.81666,-1.21439 2.2553,-0.69394 3.64318,0 2.2553,1.56136 2.08182,-1.21439 1.90833,-1.56136 -0.34697,-1.90834 1.90834,-2.94924 3.64318,0 2.2553,-1.04091 3.46969,0.52046 1.90834,1.21439 1.56136,-1.38788 4.33712,-1.38787 3.99015,-0.86743 0.34697,-3.12272 4.33712,-1.90834 3.46969,-2.42878 -0.52045,-2.08182 3.81666,-2.94924 3.12273,0.69394 1.04091,-4.85757 1.90833,0 1.73485,-1.56137 1.38788,0.52046 1.56136,-2.60227 2.60227,0.52045 1.73485,-1.90833 -0.52046,-2.2553 2.94924,-1.73485 -2.60227,-2.2553 -6.07196,-1.90834 -3.4697,-0.86742 -3.12273,-1.04091 -4.33711,0.86742 -1.56137,1.73485 -3.99015,-1.90833 -2.42878,-0.86742 -3.64318,1.21439 -1.73485,-2.2553 -1.56136,1.56136 -2.42879,-1.90833 -2.08182,-0.69394 -1.73485,2.77575 -1.90833,-1.73484 -0.69394,1.56136 -4.33712,0 -2.2553,-2.60227 -5.725,0 0,3.12272 -3.12272,0.69394 -1.56136,-3.12272 -1.2144,-1.56137 -3.64318,-0.34696 -1.04091,1.38787 -4.68408,0.52046 -5.37803,-0.34697 -1.56137,2.2553 0.52046,2.42879 -2.2553,1.21439 -2.25531,1.90833 -0.52045,1.2144 -0.34697,1.56136 -2.60227,0.86742 -2.42879,1.38788 -1.38788,1.56136 -1.0409,0.17349 0.17348,1.38788 -1.38788,0.86742 -1.04091,2.2553 -7.63333,6.59242 -3.64318,4.33712 -1.90833,1.04091 -1.04091,2.42879 -1.73484,3.64318 -2.08182,2.77575 -1.04091,2.25531 -1.73485,2.2553 -0.52045,1.38788 0.34697,2.08181 2.77575,1.04091 2.25531,1.56136 1.73484,1.73485 1.38788,2.2553 0.69394,2.25531 -1.04091,2.42878 -1.73485,3.4697 -4.85757,9.36818 0,2.08181 0.34697,1.38788 0.52045,3.81667 0.69394,2.2553 0.34697,1.73485 0,1.38787 0.69394,1.90834 -0.69394,1.38787 2.94924,3.81667 -0.34697,2.42879 -1.38787,2.42878 -2.94924,0.52046 -4.33712,0 -3.12273,0.69394 -3.81666,-0.52046 -3.12273,-0.34697 z"
       id="NORI"
       inkscape:connector-curvature="0"
       inkscape:label="NORI" />
  </g>
  <g
     inkscape:groupmode="layer"
     id="layer6"
     inkscape:label="COCI"
     style="display:inline">
    <path
       style="fill-rule:nonzero"
       d="m 18.155494,311.7102 -2.208101,3.43482 -2.69879,5.52025 -2.330772,3.31215 -1.8400842,3.5575 -2.0854284,2.33077 -0.3680167,2.08543 6.6243013,8.34171 1.717412,2.45345 1.10405,2.33077 3.066807,3.55749 1.962756,2.45345 1.962756,1.96275 0.613361,1.84009 -0.245345,3.43482 -0.858705,1.71741 -1.104051,1.96276 53.730447,26.00652 17.787477,8.34171 4.538873,2.2081 2.085429,-0.36802 4.78422,-7.483 0.49069,-1.96276 1.71741,-0.49069 1.22672,-2.45344 0.49069,-1.3494 1.71741,0 0.24535,-0.61336 5.88826,-0.49069 0.24535,1.3494 7.11499,-0.36802 1.22672,1.47207 3.5575,-0.49069 0.49069,-1.47207 1.59474,0.12267 -0.12268,-2.08543 1.71741,-2.33077 1.84009,-3.18948 -1.3494,-2.57611 -2.08542,-4.78422 -1.96276,-2.2081 0.12267,-2.69879 -4.90689,-2.2081 0.36802,-3.31215 2.69879,-0.61337 0.49069,-1.10405 1.47206,0 0.36802,-5.52025 -2.82146,-3.0668 -2.57612,-3.06681 -1.34939,-2.33077 -1.96276,-2.08543 -0.73603,-2.2081 0,-5.64292 -3.54414,1.0657 -2.5589,0.47708 -3.25284,0.13012 -3.7733,0.21685 -2.12518,0.21686 -1.47462,0.43371 -0.99754,0.91079 0,1.04091 -0.43371,1.04091 -0.95417,0.95417 -0.47708,1.51799 -1.040912,1.34451 -1.604734,1.51799 -1.08428,0.47708 -0.542139,0.58551 -1.387879,0.47709 -0.845738,0.62888 -0.607196,0.52045 -0.802367,-0.58551 -0.672254,-0.99754 -0.477083,-1.30113 -0.693939,-3.1661 -2.385416,-0.99754 -1.626419,-0.97585 -1.236079,-0.65057 -4.779881,-3.04228 -1.226723,-2.33077 -2.821462,-2.82147 -2.576117,-3.68016 -2.944134,-5.27491 -1.840084,-0.36802 -2.453445,1.96276 -2.698789,0.8587 -3.680168,0.49069 -2.576117,0.12268 -2.085429,-1.3494 -1.226722,-2.2081 -4.538874,-0.12267 -1.594739,0.73603 -3.557495,1.22672 -2.453445,0.24535 -2.944134,2.82146 -7.544344,6.44029 -0.981378,-0.0613 -1.90142,-1.16539 -1.472067,-1.65607 -1.165386,-1.96276 -1.165387,-8.21904 0.245345,-0.85871 -1.226723,-2.26943 -0.797369,-1.59474 -1.59474,-1.22673 -1.656075,-0.61336 z"
       id="COCI"
       inkscape:connector-curvature="0"
       inkscape:label="#path4164" />
  </g>
  <g
     inkscape:groupmode="layer"
     id="layer7"
     inkscape:label="COCII">
    <path
       style="fill-rule:nonzero;"
       d="m 98.712831,398.96824 -0.520454,1.73485 2.428783,1.38788 0.52046,2.94924 0,3.4697 -1.73485,2.77575 -0.867424,2.08182 0.34697,2.2553 2.775754,0.69394 3.12273,-0.69394 1.38788,2.2553 1.21439,-1.90833 0,-2.60227 3.64318,-3.12273 4.33712,1.04091 0,1.56136 5.03106,0.52046 1.04091,2.77576 2.94924,1.21439 1.56136,3.46969 0,2.60228 1.73485,0.69393 6.7659,-2.08181 6.24545,2.77575 5.20455,5.55152 -0.69394,3.46969 -1.38788,3.4697 -1.21439,3.29621 4.68409,2.08181 2.94924,-2.60227 2.42878,0.52046 1.38788,2.08181 2.94924,0.52046 3.29621,-1.21439 -0.86742,2.42878 0.52045,2.42879 2.77576,-1.90833 1.04091,-3.64318 0.69394,-2.42879 4.5106,-3.81667 2.60227,-2.60227 0.34697,-5.20454 4.85758,-5.20454 8.84772,-10.58257 1.21439,-5.89849 -0.69394,-14.39923 8.50076,-5.55151 1.0409,1.56136 4.51061,-6.24545 -0.34697,-0.69394 -0.6072,-2.34205 -1.21439,-2.08181 -2.94924,-4.16364 -1.2144,-2.77575 -2.08181,-3.38296 -1.82159,-1.6481 -2.68902,-1.99508 -2.42878,-2.16856 -2.16856,-2.68901 -1.47462,-1.04091 -2.08182,-1.99507 -1.12765,-1.64811 -1.56136,-2.94924 -1.2144,-2.68901 -1.3445,-2.03845 -0.9108,-1.51799 0.39034,-2.94924 0.13011,-2.60227 2.12519,-3.64318 -3.51306,-1.43125 -5.29129,-2.03845 -3.12272,-1.47462 -2.68902,-1.21439 -4.25038,-1.73485 -2.86249,-0.86742 -1.82159,-0.6072 -1.82159,-0.69394 -2.08182,-0.69394 -2.12519,-1.38788 -2.21193,-1.30113 -3.20947,-1.99508 -1.51799,-0.69394 -3.68655,-0.56382 -0.13011,2.51553 0.21685,1.99507 -0.3036,2.60227 -0.52045,3.33959 -0.3036,1.69147 -7.3731,-0.17348 -0.45442,1.29505 -0.73603,0.85871 -1.53341,0.8587 -1.71741,0.12267 -2.02409,0.24535 -1.22672,0.61336 0.49069,1.96276 -0.30669,2.26943 0.36802,2.2081 1.16539,1.96276 1.59474,1.47207 0.61336,1.5334 1.10405,1.59474 3.43482,3.7415 0.92004,0.98138 0.24535,0.73603 0.24534,1.84009 -0.55202,3.18948 -1.53341,0.24534 -0.49068,0.98138 -2.69879,0.8587 -0.24535,2.76013 2.02409,1.41073 2.94414,1.16539 -0.12267,2.57611 1.90142,2.14677 1.04271,2.33077 1.10405,2.94414 1.10405,2.02409 0.0613,1.04271 -0.98138,0.98138 -2.51478,3.61883 0,1.71741 0.12267,0.55203 -1.41073,-0.12267 -0.73604,1.59474 c 0,0 -1.22672,0.0613 -2.33077,0.42935 -1.10405,0.36802 -2.14676,-1.22672 -2.14676,-1.22672 l -0.92004,-0.55203 -6.37896,0.6747 -0.24535,-1.77875 -5.82693,0.6747 -0.42935,0.6747 -1.90142,0.184 -1.16539,3.25082 -1.77874,0.92004 -0.73604,1.3494 -0.73603,1.90142 -1.59474,2.45344 -1.5334,1.65608 -0.490693,1.22672 z"
       id="COCII"
       inkscape:connector-curvature="0"
       inkscape:label="#path4167" />
  </g>
  <g
     inkscape:groupmode="layer"
     id="layer8"
     inkscape:label="SOCI"
     style="display:inline">
    <path
       style="fill-rule:nonzero;"
       d="m 21.2223,362.37384 -1.226723,1.34939 -2.698789,-0.24534 -1.962756,-0.24535 -0.981378,1.47207 0.122672,0.98138 -1.594739,0.61336 0.122672,7.23766 1.472067,0.85871 0.122672,5.2749 -5.1522345,4.78422 -0.2453445,5.52025 1.840084,2.57612 0.613361,4.66155 0.613361,2.57611 -0.490689,2.33078 2.085429,0.49068 -0.981378,4.9069 -2.208101,2.33077 -1.1040502,2.08543 -0.1226723,4.4162 -1.3493948,2.94413 -2.6987895,1.71741 0.1226722,2.33078 -4.78421788,0.12267 1.47206708,2.2081 2.453445,1.47207 3.4348231,3.55749 2.3307733,1.71741 4.293528,-1.96275 3.434824,-1.10405 4.170856,0.24534 3.189479,-2.45344 1.594739,0 0.245345,-1.10405 6.992318,0.24534 5.274907,2.33077 3.066806,1.84009 3.680168,-0.98138 3.680167,-2.45345 0.981378,-2.69879 1.349395,-2.57611 1.717412,-0.61336 0.981378,-2.69879 1.349395,-2.69879 2.085428,-2.45345 0,-3.55749 2.576117,-3.06681 5.642924,-3.80284 2.698789,-2.33077 3.189479,-0.73604 -0.981378,2.45345 -1.472067,3.31215 0.613361,3.18948 1.717412,0.98138 1.840084,-0.36802 0.122672,-1.22672 5.029562,0.24534 2.330773,-4.53887 7.114991,0.61336 0.368017,-1.59474 5.274906,0.36802 4.048185,-4.4162 -1.349395,-0.30669 -75.443436,-36.49499 z"
       id="SOCI"
       inkscape:connector-curvature="0"
       inkscape:label="#path4170" />
  </g>
  <g
     inkscape:groupmode="layer"
     id="layer9"
     inkscape:label="SOCII"
     style="display:inline">
    <path
       style="fill-rule:nonzero;"
       d="m 11.40852,432.66504 6.746974,6.25628 2.944134,2.08543 1.594739,1.10405 0.736033,1.84008 -0.122672,1.47207 5.888268,3.68017 2.085429,1.96276 2.453445,1.96275 2.698789,1.59474 2.944134,2.69879 3.925512,2.82146 3.434824,1.71741 2.821461,2.45345 9.077747,7.60568 4.048185,1.96275 3.31215,1.71742 3.189479,1.96275 1.349395,2.08543 2.330773,0.61336 2.821461,1.3494 2.821462,2.08542 2.944134,2.08543 1.840084,1.47207 2.453445,0.12267 1.349395,1.59474 3.066806,1.22672 0.613362,-1.96275 -0.490689,-2.94414 1.472067,-1.96275 1.717411,-2.57612 1.226723,-1.34939 0.490689,-2.2081 1.717411,-0.24535 0.368017,-3.18948 3.557493,-3.55749 0,-5.64293 -1.717409,-0.98138 0,-6.99231 2.453449,-1.3494 1.47206,2.08543 1.10405,1.22672 0.98138,-1.47206 -0.12267,-5.52026 0.73603,-2.57611 1.59474,-1.22673 1.22672,-0.49068 1.3494,-1.59474 2.08543,0.24534 0.73603,0.98138 -0.24534,2.69879 -1.3494,1.10405 0.36802,1.59474 1.10405,0.36801 0.24534,3.06681 1.47207,1.84008 3.18948,0 0.61336,-2.2081 2.2081,-1.22672 0.24535,3.68017 0.73603,1.34939 2.94413,0.36802 1.96276,0.98138 11.16317,-0.12267 0.61337,-3.06681 0.36801,-3.18948 1.59474,-0.12267 -0.49069,-6.25629 2.08543,-5.2749 1.73464,-1.87423 -0.6072,-0.6072 3.29621,-9.71515 -5.03701,-5.28422 -2.08543,-1.04271 -2.51478,-0.98138 -2.08543,-1.10405 -6.37896,2.2081 -1.34939,-0.30668 -0.55203,-0.61336 -0.24534,-2.08543 -0.49069,-2.2081 -1.04271,-1.71741 -1.10405,-0.6747 -1.90142,-0.79737 -0.6747,-2.2081 -5.15224,-0.61336 -0.0613,-1.65608 -2.76013,-0.79737 -1.77875,-0.24534 -1.96275,1.90142 -1.41073,0.98138 -0.12267,1.22672 0,1.41073 -0.49069,1.34939 -0.49069,0.98138 -0.6747,-1.04271 -0.61336,-1.3494 -1.5334,0 -1.04272,0.6747 -1.41073,0.0613 -1.288058,-0.49069 -1.042714,-1.22672 -0.122672,-1.65608 1.10405,-1.84008 1.165384,-1.84009 0.49069,-1.28806 -0.24534,-2.14676 0.0613,-2.08543 -0.55202,-1.77875 -1.042716,-0.55202 -0.79737,-0.49069 -0.552025,-1.04271 0.368017,-0.98138 -1.840084,2.39211 -1.288059,0.98137 -0.920042,0.92005 -1.349394,-0.0613 -1.962757,-0.18401 -1.962756,-0.12267 -0.30668,1.59474 -7.114991,-0.49069 -2.269437,4.47754 -5.090898,-0.24535 -0.368017,1.22673 -1.288059,0.30668 -1.533403,-0.6747 -1.10405,-3.5575 2.392109,-5.76559 -3.066806,0.67469 -3.557496,3.18948 -1.10405,0.6747 -1.594739,0.92004 -1.962756,1.22672 -1.165387,1.22673 -1.288058,1.71741 -0.368017,0.98138 0.184008,1.47206 -0.368017,1.53341 -0.736033,1.34939 -0.981378,0.98138 -1.10405,1.87075 -0.521357,1.01205 -0.398685,1.25739 -0.429353,1.10405 -0.736034,0.39868 -0.981378,0.36802 -0.521357,1.01205 -0.766701,1.50273 -0.736034,2.02409 -0.490689,0.84338 -0.582693,0.42935 -1.625407,1.05805 -1.150053,0.61336 c 0,0 -1.717411,0.64403 -1.794082,0.70536 -0.07667,0.0613 -1.226722,0.35269 -1.226722,0.35269 l -0.843372,0.0767 -0.981378,-0.47536 -1.150052,-0.7667 -2.649462,-1.12134 -1.431249,-0.82405 -1.301136,-0.65057 -1.387878,-0.13011 -6.288823,-0.21686 -0.433712,0.95417 -1.47462,0.13011 -2.949241,2.12519 -1.734848,0.3036 -1.778219,0 -0.693939,-0.13012 -1.995075,0.17349 -2.255302,0.95416 -1.734847,0.69394 -1.387878,0.73731 z"
       id="SOCII"
       inkscape:connector-curvature="0"
       inkscape:label="#path4173" />
  </g>
  <g
     inkscape:groupmode="layer"
     id="layer10"
     inkscape:label="No_Pertenece"
     style="display:inline">
    <path
       style="fill-rule:nonzero;"
       d="m 90.409451,489.95298 1.840084,1.84008 2.330772,0.12268 1.59474,1.22672 2.821462,0.49069 4.170861,1.84008 9.20041,3.06681 4.90689,1.71741 3.92552,1.34939 3.92551,1.10405 2.94413,0.24535 2.08543,0.98138 2.45345,-0.12268 1.59474,0.73604 5.2749,0.12267 0.98138,1.10405 9.93645,-0.61336 1.59474,1.10405 c 0,0 5.64293,0.36802 6.25629,0.36802 0.61336,0 4.17085,0.12267 4.17085,0.12267 l 0.73604,-1.59474 4.90689,0 4.53887,0.12267 1.10405,-1.10405 4.53887,-0.12267 7.60568,0.36802 c 0,0 0.12268,-1.10405 0.61337,-1.10405 0.49068,0 7.72835,0 7.72835,0 l 1.22672,1.22672 5.39758,0.24534 2.69879,-0.12267 0,-3.06681 1.22672,-0.61336 -0.49069,-13.98463 3.18948,-0.85871 2.2081,0.61336 0.24535,-2.33077 2.94413,-1.71741 0,-3.92552 -3.43482,-3.0668 0.36801,-1.96276 2.2081,0.85871 1.22673,-1.3494 1.84008,-0.49069 1.96276,-0.73603 1.71741,-3.31215 -1.10405,-1.47207 -1.84009,0 -2.45344,1.22673 -3.68017,0.12267 0.49069,-3.80284 3.92551,-2.57612 2.57612,0.49069 2.69879,-3.18948 5.15223,-2.33077 0.61337,-2.45345 3.0668,-1.84008 0.85871,-2.33077 -1.47207,-0.36802 0,-3.31215 -0.12267,-2.2081 -0.24535,-3.31215 1.71741,-0.98138 2.08543,-1.96276 1.10405,-3.0668 0.24535,-1.96276 2.94413,-2.69879 2.33077,-0.36802 1.47207,0.85871 -0.61336,2.69879 2.08543,0.49069 0.98138,-2.45345 1.22672,-1.71741 2.94413,-0.49069 2.69879,-0.8587 -0.8587,-3.5575 0.49069,-2.57612 0.12267,-4.90689 7.48301,-5.52025 1.59474,-1.47206 0.36801,-2.33078 -2.08543,-2.33077 -3.0668,-0.98138 -4.4162,-1.47206 -3.43483,-1.59474 -2.82146,-1.22673 -1.84008,-2.82146 -0.49069,-2.2081 1.47207,-2.82146 0.98137,-2.33077 -0.73603,-2.33078 -1.96276,-2.2081 -3.0668,-0.36801 -2.08543,0.73603 -1.84008,0.12267 -0.85871,-0.73603 0.36802,-3.31215 1.59474,-1.3494 0,-1.34939 -1.71742,-0.85871 -1.10405,-1.10405 -1.10405,-0.8587 -0.83093,3.57109 -1.56137,1.21439 -2.86249,-0.17348 -0.86743,-0.0867 -1.30113,-0.52046 -0.6072,-1.38788 -1.04091,-1.12765 -2.94924,1.30114 -1.64811,0.43371 -1.99507,0.52046 -3.29621,0.69393 -1.56136,1.12766 -1.73485,0.17348 -1.73485,-1.04091 -1.12765,-0.60719 -2.16856,0 -2.08182,-0.26023 -1.38787,2.60227 -2.94925,3.03598 -0.95416,-0.86742 -8.5875,5.46477 0.43371,8.41401 0.43372,4.77083 -0.69394,2.77576 -0.26023,2.68901 -0.26023,1.82159 -2.08181,1.64811 c 0,0 -3.03599,3.46969 -3.12273,3.9034 -0.0867,0.43372 -1.90833,2.34205 -1.90833,2.34205 l -1.04091,1.99507 -1.56136,1.04091 -2.16856,2.51553 -1.90834,1.90833 -0.43371,5.1178 -2.2553,2.8625 -2.2553,1.64811 -2.08182,1.73485 -0.69394,1.56136 -0.60719,2.42878 -0.6072,2.34205 -3.20947,2.16856 -0.34697,-1.99508 0.86742,-2.86249 -2.94924,0.69393 -1.73484,0.6072 -2.16856,-0.6072 -0.43372,-1.82159 -2.86249,-0.86742 -2.77576,2.2553 -1.99507,-0.0867 -2.16856,-1.56136 -1.82159,1.82159 -1.73485,4.68409 -0.34697,2.16856 0.52045,3.29621 -0.17348,1.21439 -1.47462,0.34697 -1.04091,6.24545 -3.64318,0.26023 -6.50568,-0.0867 -2.8625,-0.78069 -2.42879,-0.69394 -1.38787,-0.95416 -0.0868,-3.90341 -2.34204,1.04091 -0.17348,1.12765 -0.26023,1.21439 -3.29621,-0.0867 -1.30114,-1.6481 -0.26023,-3.12273 -1.82159,-1.21439 0.17349,-1.12765 1.6481,-1.2144 0.17349,-2.2553 -0.6072,-1.12765 -1.38788,-0.26023 -1.82159,0.43371 -0.60719,1.12766 -1.99508,0.95416 -1.12765,1.64811 -0.52045,2.34204 0.17348,3.90341 -0.17348,1.6481 -0.6072,0.69394 -1.21439,-1.21439 -1.2144,-1.82159 -2.775752,1.47462 -0.260227,6.41894 2.168559,1.21439 -0.0867,5.55151 -1.995077,1.90833 -1.47462,1.90834 -0.173485,1.12765 -0.08674,1.99507 -2.081817,0.43371 -0.260228,2.42879 -1.387878,1.38788 -2.255302,2.77576 -1.040908,1.38787 0.520454,2.51553 z"
       id="NoPertenece"
       inkscape:connector-curvature="0"
       inkscape:label="#path4176" />
  </g>
  <g
     inkscape:groupmode="layer"
     id="layer11"
     inkscape:label="SOR"
     style="display:inline">
    <path
       style="fill-rule:nonzero"
       d="m 203.49763,504.62047 2.94924,0.86742 3.81666,-0.17349 2.94925,1.2144 4.85757,1.04091 2.94924,1.21439 3.81666,0.34697 3.4697,0.17348 1.21439,0.86743 6.24545,1.90833 4.33712,1.90833 5.03106,1.38788 1.56137,1.21439 3.12272,0.34697 3.12273,0.34697 1.56136,2.25531 16.65454,6.93939 0.69394,-1.2144 -1.04091,-1.38788 -0.69394,-9.54166 3.64318,-2.60227 3.81666,-1.56136 4.33712,-5.37803 0.86743,-2.2553 0.86742,-2.2553 3.64318,-1.73485 1.38788,-0.34697 2.42878,-0.86742 6.24546,-6.9394 0.69394,-1.21439 4.85757,-1.04091 0.17348,-1.21439 -2.65353,-1.02022 -1.47207,-0.36802 -2.57612,-0.98138 -2.33077,-1.47207 -3.43482,0.36802 -0.98138,-1.34939 -3.06681,0.8587 -0.12267,-1.59474 -2.57612,-0.12267 0,-1.59474 -4.29352,0.24534 -1.84009,-0.61336 -1.96275,-1.96275 0.24534,-2.57612 -1.10405,-2.33077 -2.57612,-2.57612 -3.18948,-1.96276 -1.96275,-2.08542 -1.59474,0.12267 -0.49069,-0.61336 -3.80284,-0.12268 -1.47207,-1.34939 0.36802,-3.80284 0.85871,-0.73603 0.61336,-2.08543 0.8587,-1.71741 0.73604,-1.47207 1.84008,-1.10405 -0.24534,-1.96276 1.47206,-0.8587 0.24535,-1.3494 7.23766,0.49069 -0.61336,-2.57612 3.0668,-2.08542 0.24535,-2.69879 1.22672,-1.10405 -1.10405,-2.08543 -2.69879,-1.47207 -2.94413,-2.2081 -2.2081,-3.5575 -0.98138,-2.57611 -2.2081,-0.61336 -0.61336,1.59474 -4.90689,-0.24535 -0.61336,1.10405 -3.68017,0.36802 -3.31215,0.8587 -0.85871,0.24535 -2.82146,-1.22672 -0.61336,-2.08543 -3.37349,0.92004 -2.14676,0.24534 -1.10405,1.77875 -0.79737,1.84009 0.0613,0.61336 -2.33077,-0.55203 0.0613,-1.34939 0.61336,-1.22673 -1.41073,-0.8587 -2.45345,0.42935 -1.10405,0.98138 -1.47207,1.10405 -0.67469,1.34939 -0.24535,2.0241 -0.49069,0.98137 -0.61336,1.84009 -2.08543,1.34939 -1.71741,0.92004 0.49069,2.39211 0.0613,3.12815 0.12267,3.0668 1.04271,0.6747 0.42936,0.30668 -0.6747,1.59474 -0.98138,1.16539 -1.65607,0.67469 -0.85871,0.6747 -0.36802,1.16539 -0.36801,1.5334 -2.63746,0.92004 -1.16538,0.55203 -1.53341,0.79737 -0.61336,1.41073 -0.98138,0.92004 -0.61336,0.61336 -0.98137,-0.49069 -1.65608,-0.0613 -2.26944,1.28805 -1.65607,1.53341 -0.42935,3.37349 3.68016,0 2.02409,-1.16539 1.47207,-0.12267 1.16539,0.42935 0.79737,0.98138 -0.55203,1.41073 -0.61336,1.10405 -0.61336,0.98138 -3.7415,1.47206 -1.41073,0.98138 -2.14677,-0.79737 -0.24534,1.96276 3.43482,3.00547 0.0613,3.43482 -1.04272,1.47207 -1.96275,0.49069 -0.36802,0.79737 0.24534,1.16538 c 0,0 0.30668,0.79737 0,0.85871 -0.30668,0.0613 -2.39211,-0.79737 -2.39211,-0.79737 l -2.2081,0.49069 -0.98137,0.36802 0.0613,2.26943 0.49069,11.53119 -1.04271,0.6747 -0.36802,0.85871 z"
       id="SOR"
       inkscape:connector-curvature="0" />
  </g>
  <g
     inkscape:groupmode="layer"
     id="layer12"
     inkscape:label="NORII"
     style="display:inline">
    <path
       style="fill-rule:nonzero;"
       d="m 303.36848,486.88617 2.08543,0.24535 2.45345,1.59474 2.82146,1.22672 1.96276,0.98138 1.10405,0.8587 2.57611,-0.61336 0.24535,-2.45344 -1.47207,-1.3494 -0.24534,-4.04818 2.94413,-2.82146 3.68017,-5.15224 6.01094,-4.66154 3.43482,-2.57612 4.29353,0 1.47207,1.71741 1.34939,-2.2081 2.94414,-0.73603 2.69879,-0.36802 0.49069,-2.57612 -3.5575,-2.94413 -3.80284,-1.3494 0.24534,-1.96275 4.90689,0.98137 -0.61336,-2.69879 -2.57611,-2.33077 -3.68017,0.98138 1.34939,-13.2486 4.04819,-0.36802 1.22672,3.31215 2.45345,0.24535 2.57611,-3.68017 0.36802,-1.3494 -2.2081,-3.55749 2.2081,-3.61883 -0.73603,-5.0909 -11.22452,0.92004 -5.9496,-7.17633 -7.85102,0.24535 3.61883,-9.32309 1.34939,-3.61884 1.04272,-4.4162 -1.77875,-4.90689 -2.94414,-4.10952 -6.56296,-0.0613 -5.39758,-1.04272 -5.02956,-3.31215 -1.71741,-2.08543 0.12267,-5.2749 c 0,0 1.59474,-1.71742 2.2081,-1.96276 0.61336,-0.24534 5.27491,-2.08543 5.27491,-2.08543 l 3.18947,-1.47207 0.12268,-1.96275 -1.47207,-0.98138 -2.33077,0.12267 -3.92552,-2.82146 c 0,0 -0.8587,-1.71741 -1.22672,-2.45344 -0.36801,-0.73604 -3.0668,-3.06681 -3.0668,-3.06681 l -1.71742,-2.33077 0.98138,-1.84009 8.34172,0 -3.18948,-4.90689 -1.59474,-2.94413 -1.96276,-2.82146 -2.69879,-2.94414 -1.96275,-2.57611 -0.73604,-0.98138 -4.78422,0.24534 -2.2081,1.10405 -1.71741,1.22672 -3.80284,0.49069 -5.15223,1.22673 -4.78422,0.8587 -4.04818,2.2081 -1.84009,1.71741 -4.66154,2.94414 -2.2081,1.22672 -3.06681,1.59474 -2.94414,2.33077 -1.34939,1.59474 -1.59474,2.08543 -1.71741,2.57612 -1.84008,2.82146 -1.47207,2.69879 -1.47207,2.45344 -1.71741,2.57612 -0.36802,2.45345 -0.24534,1.34939 -3.5575,0.12267 -2.45344,-1.10405 -2.82146,-0.98137 -2.08543,-0.24535 -0.98138,-0.36802 -0.61336,1.59474 -1.47207,0.49069 0,1.3494 0,2.33077 1.22672,0.73603 2.33078,-0.98137 2.94413,0.24534 2.2081,0.73603 1.47207,2.33078 0.36802,1.59474 -1.10406,2.69879 -1.22672,1.96275 0.36802,2.45345 0.98138,1.84008 1.47206,1.47207 2.57612,1.22672 4.90689,1.71741 3.31215,1.22672 2.57612,0.98138 1.22672,1.59474 0.36802,2.45345 -1.47207,2.2081 -3.0668,1.96275 -4.17086,2.82146 -0.73603,2.33078 0.24534,2.08543 -0.61336,4.04818 0.73603,3.31215 1.10405,2.08543 1.84009,0.85871 4.17085,-0.36802 3.31215,-0.85871 1.71742,-1.22672 3.0668,0.49069 2.33077,-0.98138 0,-1.10405 2.20811,1.10405 1.84008,4.04819 1.84008,2.33077 5.64293,3.18948 0.36801,1.71741 -1.10405,1.84008 -0.24534,1.84009 -2.08543,2.33077 -0.36802,1.71741 -0.61336,1.59474 -6.6243,-0.85871 -0.61336,1.71742 -1.47207,0.8587 0.61336,1.96276 -2.08542,1.47206 -0.85871,1.59474 -1.47207,3.31215 -1.34939,1.71742 0.8587,2.33077 1.96276,1.47207 2.33077,0 2.57612,0.61336 3.43482,2.82146 2.82146,1.96276 1.96276,2.82146 0.85871,3.31215 1.47206,2.33077 3.18948,1.10405 3.06681,-0.8587 -0.12267,1.96275 3.0668,0.12267 -0.49069,1.71742 3.18948,-0.73604 1.22672,0.85871 3.43483,0 1.96275,1.34939 z"
       id="NORII"
       inkscape:connector-curvature="0"
       inkscape:label="#path4294" />
  </g>
</svg>
